<svg version="1.1" id="Layer_1" xmlns="http://www.w3.org/2000/svg" xmlns:xlink="http://www.w3.org/1999/xlink" x="0px" y="0px"
	 width="100%" viewBox="0 0 1644 254" enable-background="new 0 0 1644 254" xml:space="preserve">
<path fill="none" opacity="1.000000" stroke="none" 
	d="
M1498.000000,255.000000 
	C1139.305298,255.000000 780.610596,255.000000 421.330017,254.692139 
	C378.549652,212.116333 336.355133,169.848373 293.692566,127.111549 
	C295.545227,125.536461 297.032043,124.440552 298.324066,123.149620 
	C337.577057,83.929398 376.813446,44.692539 416.037109,5.442954 
	C417.437622,4.041483 418.682556,2.484498 420.000000,0.999993 
	C828.333313,1.000000 1236.666626,1.000000 1645.000000,1.000000 
	C1645.000000,34.771885 1645.000000,68.427986 1644.656006,102.839745 
	C1643.856323,102.779602 1643.269653,102.009735 1642.965088,101.140976 
	C1639.439209,91.086617 1636.758179,80.643913 1632.285278,71.033981 
	C1624.333130,53.948708 1611.955566,39.920609 1596.990112,28.755610 
	C1575.999512,13.095671 1551.881470,5.136763 1525.691406,4.074115 
	C1512.578247,3.542058 1499.566895,4.802936 1486.761353,8.026625 
	C1455.105225,15.995707 1430.187256,33.777206 1412.239502,60.720837 
	C1398.957275,80.660339 1392.766968,103.356850 1392.220459,127.219391 
	C1391.982910,137.584137 1393.007446,148.257080 1395.356079,158.348389 
	C1401.900635,186.466431 1415.825439,210.438568 1438.941650,228.325897 
	C1455.810791,241.379166 1474.644897,250.234909 1496.031372,253.075409 
	C1496.759888,253.172180 1497.347046,254.334412 1498.000000,255.000000 
M842.537781,40.931248 
	C842.636230,40.623199 842.734680,40.315151 842.988220,39.080276 
	C842.988220,29.171118 842.988220,19.261957 842.988220,9.333586 
	C827.749207,9.333586 812.935425,9.333586 798.166321,9.333586 
	C798.166321,19.778675 798.166321,29.890013 798.068359,40.540218 
	C798.376282,40.633167 798.684143,40.726120 799.920166,40.966228 
	C813.947449,40.916912 827.974792,40.867599 842.537781,40.931248 
M841.902649,249.067764 
	C841.905945,223.298431 841.927002,197.529099 841.908081,171.759781 
	C841.882874,137.514023 841.826477,103.268288 841.936462,68.478096 
	C841.619202,68.371361 841.301941,68.264618 840.059448,68.011162 
	C826.705322,68.062897 813.351257,68.114632 799.459167,68.067940 
	C799.365479,68.375389 799.271729,68.682846 799.029419,69.918365 
	C799.025635,109.329720 799.004883,148.741089 799.025085,188.152435 
	C799.035645,208.769287 799.117981,229.386093 799.056335,250.547089 
	C799.367554,250.636230 799.678772,250.725388 800.920837,250.942230 
	C814.278198,250.899673 827.635620,250.857132 841.542175,250.941940 
	C841.625061,250.627609 841.707947,250.313278 841.902649,249.067764 
M1094.076050,8.037417 
	C1043.516968,8.033854 992.957825,8.019244 942.398743,8.033835 
	C928.265747,8.037914 914.132690,8.128128 899.457458,8.064680 
	C899.376709,8.373734 899.295959,8.682787 899.097717,9.923553 
	C899.097717,22.847544 899.097717,35.771534 899.097717,49.060341 
	C924.897888,49.060341 950.274353,49.060341 975.999939,49.060341 
	C975.999939,51.216530 975.999878,53.008488 975.999878,54.800446 
	C975.999878,109.218269 975.991089,163.636093 976.007385,218.053925 
	C976.010559,228.700226 976.110840,239.346497 976.071899,250.536575 
	C976.381714,250.625000 976.691467,250.713409 977.929138,250.941391 
	C991.283813,250.896805 1004.638489,250.852234 1018.534180,250.935532 
	C1018.635559,250.623047 1018.736938,250.310562 1018.988708,249.071716 
	C1018.988708,182.418076 1018.988708,115.764435 1018.988708,48.747597 
	C1045.042725,48.747597 1070.421509,48.747597 1095.810059,48.747597 
	C1095.810059,35.254490 1095.810059,22.126709 1095.945557,8.456777 
	C1095.632202,8.361746 1095.318848,8.266714 1094.076050,8.037417 
M602.541443,250.939941 
	C602.622986,250.626297 602.704468,250.312653 602.897156,249.067764 
	C602.897156,216.840363 602.897156,184.612976 602.897156,152.000000 
	C605.099182,152.000000 606.894348,152.002182 608.689514,151.999725 
	C647.120544,151.947113 685.551636,151.894012 724.537354,151.932251 
	C724.623413,151.616943 724.709473,151.301620 724.922485,150.058472 
	C724.885498,138.045090 724.848511,126.031700 724.951294,113.459038 
	C724.629639,113.371773 724.307922,113.284508 723.056091,113.091141 
	C683.132812,113.091141 643.209595,113.091141 603.252075,113.091141 
	C603.252075,91.118835 603.252075,69.597328 603.252075,47.940842 
	C604.585999,47.940842 605.575256,47.940845 606.564453,47.940845 
	C649.536743,47.940830 692.509277,47.879566 735.481018,48.033745 
	C739.868652,48.049488 741.247559,46.853443 741.099487,42.421761 
	C740.777161,32.772091 740.759033,23.095560 741.105286,13.447554 
	C741.269775,8.866436 739.616333,7.921481 735.375488,7.940933 
	C701.731201,8.095260 668.085938,8.007524 634.440979,8.033315 
	C609.960510,8.052079 585.480103,8.130442 560.462402,8.067428 
	C560.363464,8.376479 560.264465,8.685531 560.011658,9.921376 
	C560.007751,88.784744 560.003174,167.648102 560.006836,246.511475 
	C560.006897,247.671936 560.109497,248.832397 560.069092,250.538116 
	C560.379822,250.627136 560.690552,250.716156 561.929382,250.942719 
	C575.283936,250.899490 588.638489,250.856277 602.541443,250.939941 
M1197.076538,8.036864 
	C1183.153076,8.036864 1169.229614,8.036864 1155.306152,8.036864 
	C1155.306152,89.260269 1155.306152,170.030396 1155.306152,250.823685 
	C1169.738403,250.823685 1183.865112,250.823685 1198.546387,250.954285 
	C1198.638306,250.635315 1198.730225,250.316345 1198.938232,249.066803 
	C1198.941040,227.762924 1199.035400,206.458267 1198.854736,185.155945 
	C1198.825073,181.676331 1199.971313,179.399872 1202.317993,176.997528 
	C1208.059082,171.120529 1213.312378,164.766464 1219.062744,158.899323 
	C1224.548218,153.302551 1230.414307,148.078751 1235.927856,142.866074 
	C1239.733276,147.573273 1243.397461,151.857788 1246.790283,156.347412 
	C1258.807983,172.250076 1270.722290,188.230835 1282.696167,204.166656 
	C1293.807129,218.954071 1304.893555,233.760849 1316.156128,248.432144 
	C1317.167725,249.749771 1319.387817,250.831558 1321.056396,250.845398 
	C1337.029541,250.977768 1353.004639,250.856461 1369.619995,250.864456 
	C1369.425049,250.215820 1369.230103,249.567200 1368.957642,248.206024 
	C1367.580078,246.248520 1366.276855,244.233490 1364.812988,242.342865 
	C1354.232788,228.678619 1343.543945,215.097885 1333.038940,201.376358 
	C1321.778809,186.668213 1310.698608,171.822495 1299.509644,157.059814 
	C1288.325562,142.303726 1277.103638,127.576164 1266.187134,113.215820 
	C1271.297729,107.154762 1275.972534,100.985268 1281.291992,95.433411 
	C1291.962036,84.297241 1303.091797,73.602638 1313.827271,62.527584 
	C1322.441040,53.641239 1330.600098,44.313267 1339.242188,35.455696 
	C1347.683838,26.803589 1356.481812,18.499218 1365.767212,9.776992 
	C1365.174438,9.246212 1364.581665,8.715431 1363.063110,8.037882 
	C1347.905762,8.033950 1332.746704,7.912835 1317.593140,8.151231 
	C1315.295288,8.187379 1312.415161,9.302608 1310.838745,10.924281 
	C1300.497192,21.562542 1290.461304,32.497299 1280.284058,43.296005 
	C1268.622314,55.669849 1256.969482,68.052879 1245.215332,80.338661 
	C1235.137085,90.872864 1224.912964,101.267456 1214.779663,111.749161 
	C1213.771851,112.791679 1213.066528,114.138519 1212.015381,115.125305 
	C1207.658936,119.215294 1203.223633,123.221245 1198.946533,127.139671 
	C1198.946533,123.249672 1198.950928,119.087479 1198.945801,114.925293 
	C1198.902100,79.616455 1198.856567,44.307625 1198.945312,8.456611 
	C1198.632202,8.361570 1198.319092,8.266530 1197.076538,8.036864 
z"/>
<path fill="none" opacity="1.000000" stroke="none" 
	d="
M203.000000,255.000000 
	C135.739456,255.000000 68.478905,255.000000 1.000000,255.000000 
	C1.000000,187.645935 1.000000,120.291626 1.468657,52.468658 
	C69.589096,52.000000 137.240891,52.002174 204.892670,51.996666 
	C211.723251,51.996109 219.317200,53.806122 225.169281,51.400421 
	C230.998611,49.004066 235.125763,42.401196 239.918961,37.563187 
	C251.970108,25.399374 263.975983,13.190691 276.000000,1.000000 
	C299.020905,1.000000 322.041779,1.000000 345.566223,1.350417 
	C344.916992,3.096783 343.869690,4.598016 342.596130,5.873276 
	C311.751129,36.758808 280.849854,67.588303 250.075485,98.543953 
	C247.490219,101.144432 244.917770,102.077141 241.319962,102.071289 
	C180.176651,101.971832 119.033142,102.000000 57.889668,102.000000 
	C56.162701,102.000000 54.435734,102.000000 52.708767,102.000000 
	C52.467888,102.479568 52.227005,102.959137 51.986122,103.438705 
	C53.413853,104.548897 54.979702,105.520828 56.249371,106.789246 
	C103.984619,154.477188 151.699188,202.185867 199.372711,249.935486 
	C200.820374,251.385468 201.801422,253.301331 203.000000,255.000000 
z"/>
<path fill="#3F3F3F" opacity="1.000000" stroke="none" 
	d="
M203.468658,255.000000 
	C201.801422,253.301331 200.820374,251.385468 199.372711,249.935486 
	C151.699188,202.185867 103.984619,154.477188 56.249371,106.789246 
	C54.979702,105.520828 53.413853,104.548897 51.986122,103.438705 
	C52.227005,102.959137 52.467888,102.479568 52.708767,102.000000 
	C54.435734,102.000000 56.162701,102.000000 57.889668,102.000000 
	C119.033142,102.000000 180.176651,101.971832 241.319962,102.071289 
	C244.917770,102.077141 247.490219,101.144432 250.075485,98.543953 
	C280.849854,67.588303 311.751129,36.758808 342.596130,5.873276 
	C343.869690,4.598016 344.916992,3.096783 346.034851,1.350417 
	C370.354218,1.000000 394.708466,1.000000 419.531342,0.999993 
	C418.682556,2.484498 417.437622,4.041483 416.037109,5.442954 
	C376.813446,44.692539 337.577057,83.929398 298.324066,123.149620 
	C297.032043,124.440552 295.545227,125.536461 293.692566,127.111549 
	C336.355133,169.848373 378.549652,212.116333 420.872070,254.692139 
	C396.645782,255.000000 372.291534,255.000000 347.503510,254.649567 
	C346.387817,253.374527 345.811615,252.344345 345.008789,251.540543 
	C312.973419,219.466461 280.941895,187.388321 248.783371,155.438034 
	C247.353653,154.017593 244.748520,153.119507 242.681854,153.102936 
	C221.683670,152.934464 200.683640,152.994080 179.684128,153.018097 
	C178.675140,153.019257 177.666428,153.284775 175.332886,153.614166 
	C177.622818,155.552307 179.113037,156.641861 180.403748,157.931152 
	C211.415039,188.908127 242.407990,219.903458 273.388275,250.911438 
	C274.671112,252.195435 275.799591,253.633636 277.000000,255.000000 
	C252.645767,255.000000 228.291550,255.000000 203.468658,255.000000 
z"/>
<path fill="#FFFFFF" opacity="1.000000" stroke="none" 
	d="
M1498.468628,255.000000 
	C1497.347046,254.334412 1496.759888,253.172180 1496.031372,253.075409 
	C1474.644897,250.234909 1455.810791,241.379166 1438.941650,228.325897 
	C1415.825439,210.438568 1401.900635,186.466431 1395.356079,158.348389 
	C1393.007446,148.257080 1391.982910,137.584137 1392.220459,127.219391 
	C1392.766968,103.356850 1398.957275,80.660339 1412.239502,60.720837 
	C1430.187256,33.777206 1455.105225,15.995707 1486.761353,8.026625 
	C1499.566895,4.802936 1512.578247,3.542058 1525.691406,4.074115 
	C1551.881470,5.136763 1575.999512,13.095671 1596.990112,28.755610 
	C1611.955566,39.920609 1624.333130,53.948708 1632.285278,71.033981 
	C1636.758179,80.643913 1639.439209,91.086617 1642.965088,101.140976 
	C1643.269653,102.009735 1643.856323,102.779602 1644.656006,103.297699 
	C1645.000000,118.687561 1645.000000,134.375122 1644.695801,150.240723 
	C1643.585205,154.032730 1642.845093,157.663040 1641.961548,161.258118 
	C1635.396484,187.972412 1621.388916,210.185272 1600.005859,227.264755 
	C1582.915405,240.915543 1563.453125,250.061035 1541.456543,253.046188 
	C1540.892944,253.122665 1540.482056,254.323502 1540.000000,254.999985 
	C1526.312378,255.000000 1512.624878,255.000000 1498.468628,255.000000 
M1599.023804,144.568939 
	C1599.348511,143.322830 1600.009521,142.059128 1599.945435,140.833374 
	C1599.388428,130.179520 1599.729492,119.345039 1597.829468,108.924141 
	C1594.339844,89.784134 1584.295776,73.751060 1569.097412,61.828579 
	C1551.608276,48.109222 1531.579956,42.000965 1508.908569,44.843563 
	C1490.900146,47.101509 1475.413574,54.159115 1462.814209,66.836838 
	C1451.476074,78.245506 1443.642456,91.965294 1440.464844,108.003593 
	C1439.291504,113.926018 1437.223633,119.857353 1437.234619,125.781517 
	C1437.248535,133.305771 1438.509033,140.919678 1440.026855,148.332153 
	C1444.818970,171.736588 1456.981323,190.344101 1477.499634,202.944626 
	C1497.056519,214.954712 1518.042725,217.953934 1540.379639,212.301331 
	C1558.636719,207.681137 1572.963501,197.325623 1583.909424,182.447952 
	C1591.954102,171.513718 1597.253174,159.132416 1599.023804,144.568939 
z"/>
<path fill="#FFFFFF" opacity="1.000000" stroke="none" 
	d="
M275.531342,1.000000 
	C263.975983,13.190691 251.970108,25.399374 239.918961,37.563187 
	C235.125763,42.401196 230.998611,49.004066 225.169281,51.400421 
	C219.317200,53.806122 211.723251,51.996109 204.892670,51.996666 
	C137.240891,52.002174 69.589096,52.000000 1.468657,52.000000 
	C1.000000,51.250000 1.000000,50.500000 1.278031,49.660370 
	C17.344191,33.900120 33.136063,18.233248 48.889587,2.527919 
	C49.162697,2.255646 48.973480,1.519625 49.000000,1.000000 
	C124.354225,1.000000 199.708450,1.000000 275.531342,1.000000 
z"/>
<path fill="none" opacity="1.000000" stroke="none" 
	d="
M277.468658,255.000000 
	C275.799591,253.633636 274.671112,252.195435 273.388275,250.911438 
	C242.407990,219.903458 211.415039,188.908127 180.403748,157.931152 
	C179.113037,156.641861 177.622818,155.552307 175.332886,153.614166 
	C177.666428,153.284775 178.675140,153.019257 179.684128,153.018097 
	C200.683640,152.994080 221.683670,152.934464 242.681854,153.102936 
	C244.748520,153.119507 247.353653,154.017593 248.783371,155.438034 
	C280.941895,187.388321 312.973419,219.466461 345.008789,251.540543 
	C345.811615,252.344345 346.387817,253.374527 347.034851,254.649567 
	C323.979095,255.000000 300.958221,255.000000 277.468658,255.000000 
z"/>
<path fill="none" opacity="1.000000" stroke="none" 
	d="
M1540.468628,254.999985 
	C1540.482056,254.323502 1540.892944,253.122665 1541.456543,253.046188 
	C1563.453125,250.061035 1582.915405,240.915543 1600.005859,227.264755 
	C1621.388916,210.185272 1635.396484,187.972412 1641.961548,161.258118 
	C1642.845093,157.663040 1643.585205,154.032730 1644.695801,150.709381 
	C1645.000000,185.593964 1645.000000,220.187927 1645.000000,255.000000 
	C1610.312744,255.000000 1575.625000,255.000000 1540.468628,254.999985 
z"/>
<path fill="none" opacity="1.000000" stroke="none" 
	d="
M48.531342,1.000000 
	C48.973480,1.519625 49.162697,2.255646 48.889587,2.527919 
	C33.136063,18.233248 17.344191,33.900120 1.278031,49.285370 
	C1.000000,33.073269 1.000000,17.146536 1.000000,1.000000 
	C16.686876,1.000000 32.374779,1.000000 48.531342,1.000000 
z"/>
<path fill="#FFFFFF" opacity="1.000000" stroke="none" 
	d="
M1197.991699,250.823685 
	C1183.865112,250.823685 1169.738403,250.823685 1155.306152,250.823685 
	C1155.306152,170.030396 1155.306152,89.260269 1155.306152,8.036864 
	C1169.229614,8.036864 1183.153076,8.036864 1197.632812,8.279976 
	C1198.348389,8.744699 1198.556030,8.903267 1198.811523,8.998789 
	C1198.856567,44.307625 1198.902100,79.616455 1198.945801,114.925293 
	C1198.950928,119.087479 1198.946533,123.249672 1198.946533,127.139671 
	C1203.223633,123.221245 1207.658936,119.215294 1212.015381,115.125305 
	C1213.066528,114.138519 1213.771851,112.791679 1214.779663,111.749161 
	C1224.912964,101.267456 1235.137085,90.872864 1245.215332,80.338661 
	C1256.969482,68.052879 1268.622314,55.669849 1280.284058,43.296005 
	C1290.461304,32.497299 1300.497192,21.562542 1310.838745,10.924281 
	C1312.415161,9.302608 1315.295288,8.187379 1317.593140,8.151231 
	C1332.746704,7.912835 1347.905762,8.033950 1363.558472,8.402290 
	C1364.410400,9.191864 1364.766846,9.617031 1365.123413,10.042196 
	C1356.481812,18.499218 1347.683838,26.803589 1339.242188,35.455696 
	C1330.600098,44.313267 1322.441040,53.641239 1313.827271,62.527584 
	C1303.091797,73.602638 1291.962036,84.297241 1281.291992,95.433411 
	C1275.972534,100.985268 1271.297729,107.154762 1266.187134,113.215820 
	C1277.103638,127.576164 1288.325562,142.303726 1299.509644,157.059814 
	C1310.698608,171.822495 1321.778809,186.668213 1333.038940,201.376358 
	C1343.543945,215.097885 1354.232788,228.678619 1364.812988,242.342865 
	C1366.276855,244.233490 1367.580078,246.248520 1368.983643,248.877090 
	C1368.999512,249.968079 1368.989380,250.388000 1368.979248,250.807922 
	C1353.004639,250.856461 1337.029541,250.977768 1321.056396,250.845398 
	C1319.387817,250.831558 1317.167725,249.749771 1316.156128,248.432144 
	C1304.893555,233.760849 1293.807129,218.954071 1282.696167,204.166656 
	C1270.722290,188.230835 1258.807983,172.250076 1246.790283,156.347412 
	C1243.397461,151.857788 1239.733276,147.573273 1235.927856,142.866074 
	C1230.414307,148.078751 1224.548218,153.302551 1219.062744,158.899323 
	C1213.312378,164.766464 1208.059082,171.120529 1202.317993,176.997528 
	C1199.971313,179.399872 1198.825073,181.676331 1198.854736,185.155945 
	C1199.035400,206.458267 1198.941040,227.762924 1198.703613,249.627502 
	C1198.250000,250.355072 1198.090942,250.566895 1197.991699,250.823685 
M1198.396118,129.470413 
	C1198.396118,129.470413 1198.524780,129.384384 1198.396118,129.470413 
z"/>
<path fill="#FFFFFF" opacity="1.000000" stroke="none" 
	d="
M560.999634,8.182232 
	C585.480103,8.130442 609.960510,8.052079 634.440979,8.033315 
	C668.085938,8.007524 701.731201,8.095260 735.375488,7.940933 
	C739.616333,7.921481 741.269775,8.866436 741.105286,13.447554 
	C740.759033,23.095560 740.777161,32.772091 741.099487,42.421761 
	C741.247559,46.853443 739.868652,48.049488 735.481018,48.033745 
	C692.509277,47.879566 649.536743,47.940830 606.564453,47.940845 
	C605.575256,47.940845 604.585999,47.940842 603.252075,47.940842 
	C603.252075,69.597328 603.252075,91.118835 603.252075,113.091141 
	C643.209595,113.091141 683.132812,113.091141 723.611206,113.323608 
	C724.334412,113.775734 724.549438,113.929817 724.811523,114.018311 
	C724.848511,126.031700 724.885498,138.045090 724.677612,150.614563 
	C724.225342,151.355576 724.075317,151.579025 723.982666,151.841003 
	C685.551636,151.894012 647.120544,151.947113 608.689514,151.999725 
	C606.894348,152.002182 605.099182,152.000000 602.897156,152.000000 
	C602.897156,184.612976 602.897156,216.840363 602.666382,249.621674 
	C602.225159,250.344315 602.077576,250.556808 601.993042,250.813049 
	C588.638489,250.856277 575.283936,250.899490 561.371948,250.696381 
	C560.639709,250.237900 560.422913,250.085495 560.164185,249.992859 
	C560.109497,248.832397 560.006897,247.671936 560.006836,246.511475 
	C560.003174,167.648102 560.007751,88.784744 560.266113,9.366086 
	C560.744568,8.650265 560.904236,8.440743 560.999634,8.182232 
z"/>
<path fill="#FFFFFF" opacity="1.000000" stroke="none" 
	d="
M899.999695,8.178829 
	C914.132690,8.128128 928.265747,8.037914 942.398743,8.033835 
	C992.957825,8.019244 1043.516968,8.033854 1094.632080,8.280317 
	C1095.347046,8.745187 1095.554321,8.903758 1095.810059,8.998930 
	C1095.810059,22.126709 1095.810059,35.254490 1095.810059,48.747597 
	C1070.421509,48.747597 1045.042725,48.747597 1018.988708,48.747597 
	C1018.988708,115.764435 1018.988708,182.418076 1018.734619,249.626648 
	C1018.249268,250.336761 1018.086853,250.545456 1017.993164,250.807648 
	C1004.638489,250.852234 991.283813,250.896805 977.372803,250.694031 
	C976.642029,250.234802 976.425293,250.083511 976.166260,249.992783 
	C976.110840,239.346497 976.010559,228.700226 976.007385,218.053925 
	C975.991089,163.636093 975.999878,109.218269 975.999878,54.800446 
	C975.999878,53.008488 975.999939,51.216530 975.999939,49.060341 
	C950.274353,49.060341 924.897888,49.060341 899.097717,49.060341 
	C899.097717,35.771534 899.097717,22.847544 899.328430,9.366877 
	C899.766235,8.641790 899.913086,8.431334 899.999695,8.178829 
z"/>
<path fill="#FFFFFF" opacity="1.000000" stroke="none" 
	d="
M840.992981,250.814575 
	C827.635620,250.857132 814.278198,250.899673 800.361511,250.703796 
	C799.634766,250.250839 799.423340,250.096695 799.167908,250.002930 
	C799.117981,229.386093 799.035645,208.769287 799.025085,188.152435 
	C799.004883,148.741089 799.025635,109.329720 799.279907,69.360764 
	C799.747803,68.636200 799.903381,68.423935 799.997131,68.166359 
	C813.351257,68.114632 826.705322,68.062897 840.607239,68.270325 
	C841.294250,68.783432 841.503723,68.947784 841.783569,69.022545 
	C841.826477,103.268288 841.882874,137.514023 841.908081,171.759781 
	C841.927002,197.529099 841.905945,223.298431 841.671326,249.622513 
	C841.228394,250.345779 841.079407,250.558228 840.992981,250.814575 
z"/>
<path fill="#FFFFFF" opacity="1.000000" stroke="none" 
	d="
M798.166321,40.001350 
	C798.166321,29.890013 798.166321,19.778675 798.166321,9.333586 
	C812.935425,9.333586 827.749207,9.333586 842.988220,9.333586 
	C842.988220,19.261957 842.988220,29.171118 842.733521,39.635323 
	C842.256165,40.351238 842.097229,40.560539 842.002075,40.818283 
	C827.974792,40.867599 813.947449,40.916912 799.362366,40.716461 
	C798.636597,40.250095 798.423889,40.094978 798.166321,40.001350 
z"/>
<path fill="#F2F2F2" opacity="1.000000" stroke="none" 
	d="
M1365.445312,9.909595 
	C1364.766846,9.617031 1364.410400,9.191864 1364.021362,8.475674 
	C1364.581665,8.715431 1365.174438,9.246212 1365.445312,9.909595 
z"/>
<path fill="#E9E9E9" opacity="1.000000" stroke="none" 
	d="
M1369.299561,250.836182 
	C1368.989380,250.388000 1368.999512,249.968079 1369.022461,249.233368 
	C1369.230103,249.567200 1369.425049,250.215820 1369.299561,250.836182 
z"/>
<path fill="#F2F2F2" opacity="1.000000" stroke="none" 
	d="
M899.728577,8.121756 
	C899.913086,8.431334 899.766235,8.641790 899.387207,8.901020 
	C899.295959,8.682787 899.376709,8.373734 899.728577,8.121756 
z"/>
<path fill="#E7E7E7" opacity="1.000000" stroke="none" 
	d="
M1198.269043,250.888977 
	C1198.090942,250.566895 1198.250000,250.355072 1198.645630,250.092789 
	C1198.730225,250.316345 1198.638306,250.635315 1198.269043,250.888977 
z"/>
<path fill="#E9E9E9" opacity="1.000000" stroke="none" 
	d="
M1018.263672,250.871582 
	C1018.086853,250.545456 1018.249268,250.336761 1018.659424,250.089828 
	C1018.736938,250.310562 1018.635559,250.623047 1018.263672,250.871582 
z"/>
<path fill="#E9E9E9" opacity="1.000000" stroke="none" 
	d="
M976.119080,250.264679 
	C976.425293,250.083511 976.642029,250.234802 976.908875,250.624252 
	C976.691467,250.713409 976.381714,250.625000 976.119080,250.264679 
z"/>
<path fill="#E9E9E9" opacity="1.000000" stroke="none" 
	d="
M841.267578,250.878265 
	C841.079407,250.558228 841.228394,250.345779 841.615356,250.088104 
	C841.707947,250.313278 841.625061,250.627609 841.267578,250.878265 
z"/>
<path fill="#F6F6F6" opacity="1.000000" stroke="none" 
	d="
M799.112122,250.275009 
	C799.423340,250.096695 799.634766,250.250839 799.896118,250.639954 
	C799.678772,250.725388 799.367554,250.636230 799.112122,250.275009 
z"/>
<path fill="#E9E9E9" opacity="1.000000" stroke="none" 
	d="
M602.267212,250.876495 
	C602.077576,250.556808 602.225159,250.344315 602.610840,250.087296 
	C602.704468,250.312653 602.622986,250.626297 602.267212,250.876495 
z"/>
<path fill="#E9E9E9" opacity="1.000000" stroke="none" 
	d="
M560.116638,250.265488 
	C560.422913,250.085495 560.639709,250.237900 560.907837,250.627625 
	C560.690552,250.716156 560.379822,250.627136 560.116638,250.265488 
z"/>
<path fill="#F2F2F2" opacity="1.000000" stroke="none" 
	d="
M560.731018,8.124830 
	C560.904236,8.440743 560.744568,8.650265 560.343079,8.902689 
	C560.264465,8.685531 560.363464,8.376479 560.731018,8.124830 
z"/>
<path fill="#F4F4F4" opacity="1.000000" stroke="none" 
	d="
M798.117310,40.270782 
	C798.423889,40.094978 798.636597,40.250095 798.898315,40.642883 
	C798.684143,40.726120 798.376282,40.633167 798.117310,40.270782 
z"/>
<path fill="#DDDDDD" opacity="1.000000" stroke="none" 
	d="
M724.260010,151.886627 
	C724.075317,151.579025 724.225342,151.355576 724.614075,151.078461 
	C724.709473,151.301620 724.623413,151.616943 724.260010,151.886627 
z"/>
<path fill="#F2F2F2" opacity="1.000000" stroke="none" 
	d="
M1095.877808,8.727854 
	C1095.554321,8.903758 1095.347046,8.745187 1095.096802,8.347449 
	C1095.318848,8.266714 1095.632202,8.361746 1095.877808,8.727854 
z"/>
<path fill="#DDDDDD" opacity="1.000000" stroke="none" 
	d="
M724.881409,113.738678 
	C724.549438,113.929817 724.334412,113.775734 724.076294,113.376663 
	C724.307922,113.284508 724.629639,113.371773 724.881409,113.738678 
z"/>
<path fill="#D9D9D9" opacity="1.000000" stroke="none" 
	d="
M841.859985,68.750320 
	C841.503723,68.947784 841.294250,68.783432 841.069824,68.343681 
	C841.301941,68.264618 841.619202,68.371361 841.859985,68.750320 
z"/>
<path fill="#F2F2F2" opacity="1.000000" stroke="none" 
	d="
M1198.878418,8.727699 
	C1198.556030,8.903267 1198.348389,8.744699 1198.097412,8.347288 
	C1198.319092,8.266530 1198.632202,8.361570 1198.878418,8.727699 
z"/>
<path fill="#F6F6F6" opacity="1.000000" stroke="none" 
	d="
M799.728149,68.117149 
	C799.903381,68.423935 799.747803,68.636200 799.354187,68.896729 
	C799.271729,68.682846 799.365479,68.375389 799.728149,68.117149 
z"/>
<path fill="#F4F4F4" opacity="1.000000" stroke="none" 
	d="
M842.269897,40.874763 
	C842.097229,40.560539 842.256165,40.351238 842.656006,40.098740 
	C842.734680,40.315151 842.636230,40.623199 842.269897,40.874763 
z"/>
<path fill="none" opacity="1.000000" stroke="none" 
	d="
M1599.021973,145.019958 
	C1597.253174,159.132416 1591.954102,171.513718 1583.909424,182.447952 
	C1572.963501,197.325623 1558.636719,207.681137 1540.379639,212.301331 
	C1518.042725,217.953934 1497.056519,214.954712 1477.499634,202.944626 
	C1456.981323,190.344101 1444.818970,171.736588 1440.026855,148.332153 
	C1438.509033,140.919678 1437.248535,133.305771 1437.234619,125.781517 
	C1437.223633,119.857353 1439.291504,113.926018 1440.464844,108.003593 
	C1443.642456,91.965294 1451.476074,78.245506 1462.814209,66.836838 
	C1475.413574,54.159115 1490.900146,47.101509 1508.908569,44.843563 
	C1531.579956,42.000965 1551.608276,48.109222 1569.097412,61.828579 
	C1584.295776,73.751060 1594.339844,89.784134 1597.829468,108.924141 
	C1599.729492,119.345039 1599.388428,130.179520 1599.945435,140.833374 
	C1600.009521,142.059128 1599.348511,143.322830 1599.021973,145.019958 
z"/>
<path fill="#E6E6E6" opacity="1.000000" stroke="none" 
	d="
M1198.460449,129.427399 
	C1198.524780,129.384384 1198.396118,129.470413 1198.460449,129.427399 
z"/>
</svg>
